<svg xmlns="http://www.w3.org/2000/svg" version="1.1" xmlns:xlink="http://www.w3.org/1999/xlink" xmlns:svgjs="http://svgjs.com/svgjs" width="1920" height="1080" preserveAspectRatio="none" viewBox="0 0 1920 1080">
    <g mask="url(&quot;#SvgjsMask1574&quot;)" fill="none">
        <rect width="1920" height="1080" x="0" y="0" fill="url(#SvgjsLinearGradient1575)"></rect>
        <path d="M625.507,1036.053C709.425,1039.481,794.635,999.509,832.449,924.515C867.603,854.798,829.014,777.7,789.831,710.165C750.854,642.986,703.173,567.414,625.507,567.837C548.247,568.258,500.267,643.583,464.255,711.938C431.343,774.409,414.46,845.508,445.912,908.726C480.946,979.144,546.921,1032.843,625.507,1036.053" fill="rgba(56, 96, 143, 0.19)" class="triangle-float3"></path>
        <path d="M208.612,356.802C268.913,356.233,316.898,313.191,347.906,261.47C380.024,207.898,398.576,143.428,369.761,88.009C338.977,28.803,275.277,-9.41,208.612,-6.432C146.11,-3.64,99.988,46.135,70.607,101.371C43.28,152.746,37.027,212.946,64.688,264.143C93.757,317.946,147.461,357.379,208.612,356.802" fill="rgba(56, 96, 143, 0.19)" class="triangle-float3"></path>
        <path d="M586.265,505.693C617.732,503.054,635.06,472.565,650.579,445.065C665.709,418.253,683.646,387.259,668.092,360.691C652.622,334.268,616.882,335.505,586.265,335.215C554.873,334.918,519.774,333.441,501.709,359.115C481.441,387.92,482.489,427.178,500.089,457.687C517.699,488.214,551.146,508.639,586.265,505.693" fill="rgba(56, 96, 143, 0.19)" class="triangle-float2"></path>
        <path d="M318.548,1139.112C376.407,1140.662,438.516,1129.964,469.905,1081.335C503.547,1029.217,499.259,961.243,467.911,907.714C436.899,854.757,379.915,822.406,318.548,822.878C257.985,823.344,202.31,856.92,173.116,909.984C144.912,961.248,149.261,1024.185,180.616,1073.584C209.852,1119.646,264.011,1137.651,318.548,1139.112" fill="rgba(56, 96, 143, 0.19)" class="triangle-float2"></path>
        <path d="M1503.3 881.82 a192.81 192.81 0 1 0 385.62 0 a192.81 192.81 0 1 0 -385.62 0z" fill="rgba(56, 96, 143, 0.19)" class="triangle-float3"></path>
        <path d="M63.768,454.263C100.419,454.811,131.894,429.474,148.903,397.004C164.723,366.803,161.607,330.715,143.676,301.717C126.68,274.232,96.057,260.653,63.768,259.329C28.548,257.885,-10.264,264.411,-28.354,294.665C-46.779,325.48,-35.015,363.427,-17.067,394.522C0.885,425.624,27.861,453.726,63.768,454.263" fill="rgba(56, 96, 143, 0.19)" class="triangle-float2"></path>
        <path d="M1263.55 933.31 a227.97 227.97 0 1 0 455.94 0 a227.97 227.97 0 1 0 -455.94 0z" fill="rgba(56, 96, 143, 0.19)" class="triangle-float2"></path>
        <path d="M1615.16 481.28 a264.05 264.05 0 1 0 528.1 0 a264.05 264.05 0 1 0 -528.1 0z" fill="rgba(56, 96, 143, 0.19)" class="triangle-float1"></path>
        <path d="M1168.66 170.45 a350.76 350.76 0 1 0 701.52 0 a350.76 350.76 0 1 0 -701.52 0z" fill="rgba(56, 96, 143, 0.19)" class="triangle-float3"></path>
        <path d="M114.81 412.2 a257.22 257.22 0 1 0 514.44 0 a257.22 257.22 0 1 0 -514.44 0z" fill="rgba(56, 96, 143, 0.19)" class="triangle-float1"></path>
        <path d="M747.409,95.64C791.527,95.635,827.844,64.473,849.359,25.957C870.288,-11.509,876.024,-57.63,853.396,-94.095C831.761,-128.96,788.41,-139.931,747.409,-138.334C709.503,-136.858,674.822,-118.593,654.816,-86.362C633.576,-52.142,627.155,-9.916,645.418,25.981C665.426,65.31,703.283,95.645,747.409,95.64" fill="rgba(56, 96, 143, 0.19)" class="triangle-float2"></path>
        <path d="M1410.053,1211.839C1465.294,1211.58,1511.225,1171.099,1535.539,1121.496C1557.151,1077.406,1547.197,1026.537,1521.343,984.793C1497.012,945.507,1456.121,922.499,1410.053,918.882C1355.457,914.596,1292.785,918.146,1263.733,964.569C1233.555,1012.79,1253.539,1073.727,1282.509,1122.684C1310.822,1170.531,1354.458,1212.1,1410.053,1211.839" fill="rgba(56, 96, 143, 0.19)" class="triangle-float3"></path>
        <path d="M593.29,695.658C638.783,696.94,683.004,675.016,705.577,635.497C727.986,596.266,724.073,547.28,699.813,509.166C677.232,473.69,635.328,457.974,593.29,459.086C553.324,460.143,516.61,480.238,496.099,514.555C475.021,549.821,472.03,593.26,491.458,629.461C511.977,667.696,549.914,694.435,593.29,695.658" fill="rgba(56, 96, 143, 0.19)" class="triangle-float1"></path>
        <path d="M213.677,1316.489C302.239,1319.425,394.669,1295.171,442.373,1220.497C493.399,1140.622,495.262,1035.235,444.475,955.208C396.691,879.912,302.685,854.602,213.677,860.129C134.57,865.041,67.938,912.8,27.706,981.089C-13.238,1050.588,-29.297,1135.613,9.818,1206.157C49.976,1278.583,130.908,1313.745,213.677,1316.489" fill="rgba(56, 96, 143, 0.19)" class="triangle-float1"></path>
    </g>
    <defs>
        <mask id="SvgjsMask1574">
            <rect width="1920" height="1080" fill="#ffffff"></rect>
        </mask>
        <linearGradient x1="10.94%" y1="-19.44%" x2="89.06%" y2="119.44%" gradientUnits="userSpaceOnUse" id="SvgjsLinearGradient1575">
            <stop stop-color="rgba(29, 29, 38, 1)" offset="0"></stop>
            <stop stop-color="rgba(20, 20, 26, 1)" offset="1"></stop>
        </linearGradient>
        <style>
            @keyframes float1 {
                0% {
                    transform: translate(0, 0)
                }

                50% {
                    transform: translate(-10px, 0)
                }

                100% {
                    transform: translate(0, 0)
                }
            }

            .triangle-float1 {
                animation: float1 5s infinite;
            }

            @keyframes float2 {
                0% {
                    transform: translate(0, 0)
                }

                50% {
                    transform: translate(-5px, -5px)
                }

                100% {
                    transform: translate(0, 0)
                }
            }

            .triangle-float2 {
                animation: float2 4s infinite;
            }

            @keyframes float3 {
                0% {
                    transform: translate(0, 0)
                }

                50% {
                    transform: translate(0, -10px)
                }

                100% {
                    transform: translate(0, 0)
                }
            }

            .triangle-float3 {
                animation: float3 6s infinite;
            }
        </style>
    </defs>
</svg>
